# xmcd
#
# Track frame offsets:
#	183
#	20925
#	48268
#	66605
#	84778
#	105188
#	118303
#	132265
#	164128
#	180760
#	206435
#	222573
#	242278
#	259523
#	272230
#	289753
#	312370
#
# Disc length: 4380 seconds
# Revision: 0
# Processed by: cddbd v1.5.2PL0 Copyright (c) Steve Scherf et al.
# Submitted via: dBpowerAMP V12.0
#
DISCID=f8111a11
DTITLE=Various Artist - The Alligator Records 20th Anniversary Collection, Disc 2 [dBP]
DYEAR=1991
DGENRE=Blues
TTITLE0=Albert Collins - Brick
TTITLE1=Katie Webster - Pussycat Moan
TTITLE2=Lil' Ed and the Blues Imperials - You Don't Exist Any More
TTITLE3=Junior Wells - Second Hand Man
TTITLE4=Delbert McClinton - I've Got Dreams to Remember
TTITLE5=Paladins, The - Going Down to Big Mary's
TTITLE6=Big Twist and the Mellow Fellows - 300 Pounds of Heavenly Joy
TTITLE7=Son Seals - Going Back Home
TTITLE8=Lonnie Mack - Strike Like Lightning
TTITLE9=Saffire -- The Uppity Blues Women - The Middle Aged Blues Boogie
TTITLE10=Lonnie Brooks - Eyeballin'
TTITLE11=Kinsey Report - Full Moon on Main Street
TTITLE12=Sonny Terry - Crow Jane
TTITLE13=Clifton Chenier - I'm the Zydeco Man
TTITLE14=Fenton Robinson - You Don't Know What Love Is
TTITLE15=Pinetop Perkins - Blues After Hours
TTITLE16=Johnny Winter - Boot Hill
EXTD=
EXTT0=
EXTT1=
EXTT2=
EXTT3=
EXTT4=
EXTT5=
EXTT6=
EXTT7=
EXTT8=
EXTT9=
EXTT10=
EXTT11=
EXTT12=
EXTT13=
EXTT14=
EXTT15=
EXTT16=
PLAYORDER=
